<svg xmlns="http://www.w3.org/2000/svg" width="32" height="32" viewBox="0 0 32 32"><rect width="100%" height="100%" fill="#fcfcfc"/><path fill="#d4af37" d="M15.68 16q0 1.11-.37 2.04t-1.04 1.61q-.68.67-1.62 1.04-.95.37-2.1.37H6.69V10.94h3.86q1.15 0 2.1.37.94.38 1.62 1.05.67.66 1.04 1.59.37.94.37 2.05m-1.93 0q0-.83-.22-1.5-.22-.66-.64-1.12-.42-.45-1.01-.7-.59-.24-1.33-.24H8.58v7.12h1.97q.74 0 1.33-.24.59-.25 1.01-.71t.64-1.12.22-1.49m10.54 2.67q.15 0 .27.12l.75.81q-.62.76-1.52 1.17-.9.4-2.16.4-1.13 0-2.03-.38-.9-.39-1.53-1.07-.64-.69-.98-1.64T16.75 16q0-1.14.37-2.09.36-.95 1.02-1.64.66-.68 1.58-1.06t2.03-.38 1.96.36q.86.36 1.46.95l-.63.88q-.05.08-.14.14-.09.07-.24.07-.11 0-.22-.06t-.24-.15q-.14-.09-.31-.19-.18-.11-.41-.19-.23-.09-.53-.15-.31-.06-.71-.06-.68 0-1.24.24t-.97.7-.63 1.12-.22 1.51.24 1.52q.24.66.65 1.12.42.45.98.69.56.25 1.2.25.38 0 .7-.05.31-.04.57-.13t.5-.23q.23-.15.46-.36.07-.06.15-.1t.16-.04"/></svg>